<svg width="24" height="22" viewBox="0 0 24 22" fill="none" xmlns="http://www.w3.org/2000/svg">
<path d="M23.0758 11.0783C23.0811 9.88172 22.8479 8.69599 22.3895 7.5899C21.9311 6.4838 21.2568 5.47937 20.4056 4.63488C19.5545 3.79039 18.5434 3.12264 17.4311 2.67039C16.3188 2.21813 15.1273 1.99037 13.926 2.00031H9.80937C8.62377 1.9928 7.44894 2.22468 6.35582 2.68195C5.2627 3.13922 4.27396 3.81239 3.44931 4.66083C2.62467 5.50926 1.9812 6.51535 1.5578 7.61834C1.1344 8.72133 0.939843 9.89834 0.98586 11.0783C0.973003 13.4253 1.89422 15.6818 3.54789 17.3539C5.20155 19.0261 7.45295 19.9776 9.80937 20.0003H13.926C16.3144 19.9831 18.6029 19.0435 20.3096 17.3793C22.0163 15.7151 23.008 13.4562 23.0758 11.0783V11.0783Z" fill="#0079BE"/>
<path d="M9.83754 2.76126C8.18935 2.70748 6.56259 3.14514 5.16576 4.01813C3.76893 4.89113 2.66567 6.15969 1.9974 7.66121C1.32912 9.16274 1.12629 10.8288 1.41488 12.4459C1.70347 14.063 2.47034 15.5574 3.6172 16.7376C4.76406 17.9178 6.23865 18.73 7.85197 19.0701C9.4653 19.4102 11.1439 19.2627 12.6725 18.6466C14.2011 18.0304 15.5102 16.9736 16.4318 15.6117C17.3535 14.2497 17.8459 12.6447 17.8458 11.0023C17.8809 8.85178 17.057 6.77546 15.5552 5.22999C14.0534 3.68453 11.9967 2.79651 9.83754 2.76126V2.76126Z" fill="white"/>
<path d="M4.77513 10.9815C4.76723 9.93838 5.07328 8.91683 5.65384 8.04861C6.23439 7.1804 7.06281 6.50533 8.03223 6.11049V15.8585C7.06225 15.4627 6.23356 14.7866 5.65301 13.9173C5.07247 13.048 4.7667 12.0255 4.77513 10.9815V10.9815ZM11.6679 15.8585V6.10449C12.6341 6.50604 13.4594 7.18332 14.0399 8.05107C14.6204 8.91883 14.9302 9.93825 14.9302 10.981C14.9302 12.0237 14.6204 13.0431 14.0399 13.9109C13.4594 14.7787 12.6341 15.4559 11.6679 15.8575V15.8585Z" fill="#0079BE"/>
</svg>
