<svg width="42" height="22" viewBox="0 0 42 22" fill="none" xmlns="http://www.w3.org/2000/svg">
<path d="M6.89211 6.53525C7.51513 6.32511 8.17632 6.25118 8.83063 6.31848C9.48494 6.38578 10.117 6.59274 10.6837 6.92525C11.2557 7.26216 11.75 7.71529 12.1344 8.25511C12.5187 8.79493 12.7845 9.40932 12.9145 10.0583L16.0984 9.40225C15.8789 8.29853 15.428 7.25332 14.7751 6.33489C14.1223 5.41646 13.2823 4.64547 12.3098 4.07225C11.3462 3.50664 10.2714 3.15478 9.15872 3.0407C8.04603 2.92663 6.92173 3.05302 5.86261 3.41125L6.89211 6.53525Z" fill="#FFCB05"/>
<path d="M3.1397 16.9928L5.28809 14.5218C4.79517 14.0754 4.40135 13.5315 4.13186 12.9248C3.86238 12.3182 3.72317 11.6621 3.72317 10.9988C3.72317 10.3354 3.86238 9.67936 4.13186 9.07268C4.40135 8.46601 4.79517 7.92208 5.28809 7.47577L3.13367 5.00977C2.29556 5.76892 1.62596 6.694 1.16777 7.72575C0.709577 8.7575 0.4729 9.87316 0.4729 11.0013C0.4729 12.1294 0.709577 13.245 1.16777 14.2768C1.62596 15.3085 2.29556 16.2336 3.13367 16.9928" fill="#00A4E0"/>
<path d="M12.9134 11.9453C12.7834 12.5937 12.5176 13.2075 12.1334 13.7468C11.7493 14.2861 11.2553 14.7388 10.6837 15.0753C10.1168 15.408 9.48456 15.615 8.83003 15.6821C8.1755 15.7492 7.51413 15.6749 6.89107 15.4643L5.86157 18.5903C6.91994 18.9477 8.04325 19.0737 9.15495 18.9598C10.2667 18.8459 11.3406 18.4948 12.3037 17.9303C13.2759 17.3585 14.1162 16.5891 14.7696 15.6723C15.4231 14.7554 15.8752 13.7118 16.0963 12.6093L12.9134 11.9453Z" fill="#EF4123"/>
<path d="M18.8805 14.6301C18.7565 14.4216 18.6458 14.2055 18.5491 13.9831C18.0528 12.8428 18.0168 11.5561 18.4486 10.3901C18.672 9.71553 19.0475 9.10081 19.5464 8.59304C20.0452 8.08528 20.6542 7.69793 21.3266 7.46067C21.999 7.22342 22.7171 7.14255 23.4258 7.22426C24.1344 7.30597 24.8149 7.5481 25.4151 7.9321C26.3322 8.49813 27.0321 9.35413 27.4028 10.3631C27.4641 10.5061 27.5163 10.6631 27.5695 10.7911L18.8805 14.6301ZM21.7812 9.5091C21.2883 9.72104 20.879 10.0883 20.6162 10.5545C20.3535 11.0206 20.2518 11.5598 20.3268 12.0891L24.6939 10.1811C24.3697 9.74037 23.8975 9.43 23.3631 9.30633C22.8287 9.18266 22.2674 9.25389 21.7812 9.5071V9.5091ZM25.2413 13.6581L25.1509 13.5961C24.8697 14.0423 24.4573 14.3914 23.9698 14.5961C23.5706 14.8109 23.1157 14.9012 22.6643 14.8552C22.2129 14.8092 21.7859 14.629 21.4387 14.3381L21.3784 14.4301L20.2656 16.1141C20.7834 16.4816 21.3713 16.7399 21.993 16.8732C22.6147 17.0065 23.2572 17.0119 23.8811 16.8892C24.505 16.7664 25.0971 16.5181 25.6212 16.1593C26.1452 15.8006 26.5902 15.3391 26.9287 14.8031L25.2413 13.6581Z" fill="#231F20"/>
<path d="M30.6038 5.12891V14.4749L32.0371 15.0639L31.2225 16.9899L29.6406 16.3209C29.3215 16.1797 29.0507 15.9489 28.8612 15.6569C28.651 15.3074 28.5464 14.905 28.5599 14.4979V5.12891H30.6038Z" fill="#231F20"/>
<path d="M34.3171 12.0944C34.3164 11.7179 34.3959 11.3455 34.5503 11.0018C34.7047 10.6581 34.9306 10.3509 35.213 10.1004L33.7425 8.44043C33.2309 8.90362 32.8221 9.46815 32.5423 10.0978C32.2626 10.7275 32.1181 11.4084 32.1181 12.0969C32.1181 12.7854 32.2626 13.4664 32.5423 14.096C32.8221 14.7257 33.2309 15.2902 33.7425 15.7534L35.211 14.0894C34.9292 13.8376 34.7043 13.5291 34.5511 13.1844C34.3978 12.8396 34.3198 12.4664 34.3221 12.0894L34.3171 12.0944Z" fill="#231F20"/>
<path d="M36.9295 14.7469C36.6476 14.7462 36.3678 14.6999 36.1008 14.6099L35.3978 16.7259C36.0438 16.945 36.7298 17.0226 37.4087 16.9536C38.0877 16.8846 38.7437 16.6704 39.332 16.3259C39.9259 15.9771 40.4393 15.5076 40.8385 14.9479C41.2378 14.3883 41.514 13.751 41.6491 13.0779L39.4907 12.6309C39.3741 13.2233 39.0553 13.7574 38.5883 14.1426C38.1213 14.5277 37.5348 14.7401 36.9285 14.7439L36.9295 14.7469Z" fill="#231F20"/>
<path d="M36.9355 7.21389C36.4175 7.21225 35.9027 7.29536 35.4118 7.45989L36.1078 9.57889C36.3749 9.48945 36.6547 9.44385 36.9365 9.44389C37.5442 9.44821 38.1315 9.6623 38.5984 10.0496C39.0653 10.437 39.3828 10.9736 39.4967 11.5679L41.6551 11.1239C41.444 10.0293 40.8582 9.04139 39.9977 8.32846C39.1371 7.61552 38.055 7.22164 36.9355 7.21389V7.21389Z" fill="#231F20"/>
</svg>
