<svg width="59" height="22" viewBox="0 0 59 22" fill="none" xmlns="http://www.w3.org/2000/svg">
<path d="M12.1191 5.93077H12.3351L12.5099 5.87877L12.6846 5.81677L12.8282 5.66177L12.9829 5.50677L13.0653 5.30077L13.1476 5.09477V4.48576L13.0753 4.36177L13.0141 4.24777L12.8805 4.16476L12.7569 4.09277H12.2226L12.0378 4.17577L11.863 4.25877L11.7495 4.37277L11.6491 4.48677L11.5667 4.68677L11.4844 4.88676L11.4643 5.19676L11.4542 5.50677L11.5265 5.65176L11.6089 5.80676L11.7525 5.87877L11.9072 5.94077L12.1191 5.93077Z" fill="#B3131B"/>
<path d="M46.618 14.6762H47.3894V14.1912L47.4818 13.6032C47.533 13.2732 47.6154 12.7562 47.6666 12.4572C47.7178 12.1582 47.7801 11.7652 47.8002 11.5902C47.8203 11.4152 47.8926 11.0632 47.9549 10.7852C48.0171 10.5072 48.0884 10.2172 48.1196 10.1242C48.1507 10.0312 48.1708 9.94823 48.1809 9.91823C48.2177 9.79702 48.2657 9.67949 48.3245 9.56721L48.4681 9.24722L48.663 8.98923L48.8578 8.73122L49.0587 8.57622C49.1912 8.47767 49.3324 8.39132 49.4806 8.31822L49.6814 8.21822H50.5753L50.7501 8.28023L50.9249 8.33221L50.956 8.32222L50.9872 8.30122V8.18723C51.0013 8.00975 51.0288 7.83358 51.0695 7.66022L51.1519 7.26022L51.0594 7.22922C51.0082 7.20822 50.8847 7.16722 50.7822 7.13622L50.6075 7.07422H49.9697L49.7025 7.16722L49.4454 7.26022L49.2495 7.38422L49.0547 7.49821L48.7975 7.76622L48.5404 8.03423L48.4068 8.24022C48.3634 8.31459 48.3115 8.38373 48.2522 8.44623C48.2522 8.43623 48.2933 8.19823 48.3446 7.90923C48.3884 7.71108 48.4219 7.51081 48.445 7.30922V7.22623H47.1423V7.24722C47.1423 7.26822 47.1112 7.49521 47.07 7.76321C47.0288 8.03121 46.9464 8.54823 46.8852 8.90923C46.8239 9.27023 46.7305 9.85921 46.6843 10.2202C46.6381 10.5812 46.5296 11.0772 46.4895 11.3452C46.4493 11.6132 46.3458 12.0782 46.2936 12.3882C46.2414 12.6982 46.139 13.1832 46.0777 13.4722C46.0164 13.7612 45.9441 14.1642 45.9029 14.3502L45.8416 14.6802L46.618 14.6762Z" fill="#B3131B"/>
<path d="M28.546 14.676H29.3063L29.3264 14.346C29.3364 14.17 29.3877 13.809 29.4268 13.551C29.466 13.293 29.5404 12.777 29.6016 12.395C29.6629 12.013 29.7764 11.404 29.8487 11.012C29.921 10.62 30.0134 10.248 30.0435 10.165C30.0682 10.0985 30.0854 10.0294 30.0948 9.95903C30.1308 9.84581 30.1755 9.73548 30.2284 9.62903C30.3143 9.45162 30.4106 9.27933 30.5166 9.11304L30.6813 8.87604L30.8973 8.67003L31.1132 8.47003L31.3804 8.33603L31.6476 8.21204H32.4702L32.671 8.27403C32.7715 8.30503 32.8719 8.33603 32.887 8.33603C32.9021 8.33603 32.9071 8.29504 32.9071 8.25304C32.928 8.0758 32.9589 7.89985 32.9995 7.72603C33.0507 7.47803 33.0919 7.27203 33.0919 7.26103C33.0109 7.21661 32.9245 7.18299 32.8348 7.16104C32.6911 7.12004 32.4953 7.07804 32.3928 7.06104L32.218 7.04004L31.982 7.08104C31.8384 7.10676 31.6972 7.1449 31.5602 7.19504C31.4271 7.24927 31.2996 7.31625 31.1795 7.39503C31.0489 7.48164 30.9253 7.57827 30.8099 7.68404C30.6834 7.81653 30.5666 7.95789 30.4604 8.10704C30.3599 8.25204 30.2595 8.39603 30.2243 8.42703L30.1731 8.49904L30.2042 8.36504C30.2243 8.28204 30.2655 8.02403 30.3047 7.78703C30.3438 7.55003 30.387 7.33303 30.3971 7.28703L30.4172 7.22504H29.0603V7.31804C29.0603 7.35904 29.0191 7.64803 28.9678 7.94803C28.9166 8.24803 28.8342 8.75303 28.7931 9.07303C28.7519 9.39303 28.6494 9.93003 28.5982 10.291C28.547 10.652 28.4436 11.148 28.3974 11.416C28.3511 11.684 28.2638 12.149 28.2025 12.459C28.1412 12.769 28.0478 13.264 27.9866 13.559C27.9253 13.854 27.863 14.23 27.8319 14.364C27.8095 14.456 27.7924 14.5491 27.7806 14.643V14.674L28.546 14.676Z" fill="#B3131B"/>
<path d="M10.6076 14.6747H11.3789L11.399 14.6127C11.4127 14.5551 11.4195 14.496 11.4191 14.4367C11.4191 14.3647 11.4703 14.0027 11.5326 13.6417C11.5949 13.2807 11.6873 12.6707 11.7486 12.3097C11.8098 11.9487 11.8922 11.4097 11.9434 11.1227C11.9946 10.8357 12.077 10.3687 12.1282 10.0697C12.1794 9.7707 12.2718 9.31571 12.3231 9.04771C12.3743 8.77971 12.4777 8.27371 12.539 7.92271C12.6003 7.57171 12.6826 7.27271 12.6937 7.25171L12.7138 7.2207L11.9324 7.23071L11.161 7.24071L11.0887 7.7057C11.0575 7.9637 10.9752 8.4697 10.924 8.8307C10.8727 9.1917 10.7693 9.7497 10.7231 10.0697C10.6769 10.3897 10.5895 10.8957 10.5282 11.1947C10.4669 11.4937 10.3846 11.9687 10.3334 12.2377C10.2821 12.5067 10.1998 12.9707 10.1385 13.2697C10.0772 13.5687 9.99488 13.9817 9.96375 14.1697C9.93261 14.3577 9.88139 14.5417 9.87135 14.5927L9.85126 14.6757L10.6076 14.6747Z" fill="#B3131B"/>
<path d="M1.02762 14.676H1.8914L1.95266 14.284C1.9838 14.078 2.05311 13.665 2.0963 13.384C2.13949 13.103 2.23992 12.568 2.29115 12.197C2.34237 11.826 2.44582 11.297 2.49202 10.997C2.53823 10.697 2.62561 10.243 2.66679 9.985C2.69538 9.81441 2.73327 9.6455 2.78029 9.479L2.80037 9.45801H7.45674L7.47682 9.48901L7.50796 9.51001L7.46678 9.716C7.44669 9.83 7.37437 10.181 7.32315 10.501C7.27192 10.821 7.15843 11.348 7.09716 11.678C7.03589 12.008 6.95353 12.483 6.90231 12.731C6.85109 12.979 6.75868 13.495 6.70143 13.877C6.64418 14.259 6.57789 14.6 6.57789 14.62V14.672H8.31549L8.35667 14.445C8.37676 14.321 8.4079 14.104 8.42899 13.945C8.45008 13.786 8.50131 13.48 8.54249 13.253C8.58367 13.026 8.65598 12.541 8.71725 12.21C8.77851 11.879 8.87193 11.301 8.93319 10.94C8.99446 10.579 9.07682 10.04 9.12805 9.75301C9.17927 9.46601 9.26163 8.989 9.3229 8.679C9.38417 8.369 9.46652 7.863 9.52377 7.533C9.58102 7.203 9.67845 6.71701 9.72465 6.44901C9.77085 6.18101 9.85823 5.67501 9.9195 5.33401C9.98077 4.99301 10.0531 4.61101 10.0943 4.46701L10.1555 4.20901H8.38781L8.36772 4.37401C8.35767 4.46701 8.30645 4.73501 8.27532 4.96201C8.24418 5.18901 8.16182 5.59201 8.1106 5.85001C8.05937 6.10801 7.97701 6.62401 7.92579 6.98601C7.87457 7.34801 7.7922 7.80201 7.76107 8.02901L7.6998 8.42101L6.40413 8.45201L5.10847 8.47301L4.02874 8.45201C3.43213 8.44201 2.93898 8.42101 2.93898 8.42101C2.94083 8.31645 2.95465 8.21245 2.98016 8.11101C3.01129 7.94601 3.06252 7.65701 3.1037 7.47101C3.14488 7.28501 3.2172 6.913 3.26842 6.645C3.31965 6.377 3.36886 6.045 3.39196 5.912C3.41506 5.779 3.45322 5.54001 3.47432 5.39601C3.49541 5.25201 3.56672 4.952 3.6079 4.735C3.64908 4.518 3.69027 4.29101 3.70031 4.26001L3.7204 4.20801H1.97275L1.91148 4.51801C1.88035 4.69401 1.85021 4.941 1.82912 5.065C1.80803 5.189 1.73672 5.60201 1.6855 5.98401C1.63427 6.36601 1.53082 6.91301 1.48462 7.21301C1.43842 7.51301 1.35104 8.08001 1.28977 8.45201C1.2285 8.82401 1.13509 9.40201 1.07382 9.74301C1.01255 10.084 0.930191 10.548 0.878967 10.796C0.827743 11.044 0.745383 11.508 0.684115 11.839C0.622847 12.17 0.529438 12.624 0.489262 12.851C0.449087 13.078 0.38883 13.367 0.365729 13.46C0.342628 13.553 0.293411 13.842 0.242187 14.1C0.190963 14.358 0.14978 14.575 0.14978 14.606V14.668L1.02762 14.676Z" fill="#B3131B"/>
<path d="M52.8783 14.841L53.2178 14.851L53.5363 14.799C53.7054 14.7749 53.873 14.7415 54.0385 14.699C54.1733 14.6554 54.304 14.6002 54.4291 14.534L54.6451 14.434L54.8299 14.269L55.0147 14.104L55.2095 13.846C55.31 13.701 55.4054 13.557 55.4255 13.536L55.4466 13.474L55.4255 13.66C55.4155 13.753 55.3943 13.918 55.3742 14.011C55.3542 14.104 55.3331 14.3 55.3231 14.434L55.2919 14.682H56.69V14.197L56.8035 13.278C56.8548 12.778 56.9471 12.111 56.9883 11.791C57.0295 11.471 57.1118 11.027 57.153 10.791C57.1942 10.555 57.2766 10.13 57.3177 9.841C57.3589 9.552 57.4614 9.056 57.5126 8.741C57.5639 8.426 57.6673 7.905 57.7285 7.595C57.7898 7.285 57.8722 6.81001 57.9234 6.54201C57.9746 6.27401 58.067 5.778 58.1182 5.468C58.1695 5.158 58.273 4.70401 58.3131 4.47701C58.3533 4.25001 58.4055 4.054 58.4055 4.043V4H56.8769L56.8567 4.22701C56.8467 4.35101 56.7844 4.754 56.7332 5.127C56.682 5.5 56.5785 6.097 56.5172 6.459C56.456 6.821 56.4038 7.15101 56.3937 7.22301L56.3726 7.33701L56.3114 7.31601C56.2803 7.29501 56.0954 7.254 55.9096 7.202L55.5701 7.119L55.1071 7.078L54.6451 7.047L54.2544 7.078L53.8637 7.119L53.5041 7.21201L53.1445 7.295L52.805 7.46001L52.4655 7.625L52.2185 7.811L51.9714 7.99701L51.7555 8.23401C51.6194 8.38134 51.4923 8.53661 51.3748 8.69901L51.21 8.936L51.0152 9.349C50.9148 9.566 50.7792 9.86501 50.727 9.99901C50.6747 10.133 50.5833 10.443 50.5261 10.68L50.4256 11.103L50.3634 11.661L50.3121 12.219L50.3533 12.663L50.3945 13.117L50.4457 13.272C50.4793 13.3915 50.5206 13.5087 50.5692 13.623L50.6416 13.823L50.7752 14.009L50.9188 14.195L51.0735 14.319L51.2281 14.453L51.4441 14.553C51.5853 14.6231 51.7334 14.6784 51.886 14.718C52.0298 14.7637 52.1779 14.7949 52.328 14.811C52.5106 14.8329 52.6944 14.8429 52.8783 14.841V14.841ZM53.481 13.829L53.2138 13.839L53.039 13.808C52.9153 13.7904 52.7944 13.7568 52.6795 13.708L52.5047 13.636L52.3611 13.512L52.2174 13.388L52.0015 12.975L51.9503 12.738L51.8991 12.511V12.046L51.9091 11.581L51.9603 11.168L52.0216 10.755L52.114 10.466C52.1552 10.311 52.1964 10.156 52.1964 10.136C52.2258 10.0366 52.2638 9.93994 52.3099 9.847C52.3712 9.713 52.4645 9.51701 52.5258 9.39301C52.604 9.25086 52.6899 9.11298 52.783 8.98C52.9597 8.73994 53.1752 8.53078 53.4207 8.36101L53.5854 8.26801L53.8626 8.168L54.1398 8.075H55.322L55.6615 8.168C55.8463 8.22 56.0422 8.282 56.1035 8.302L56.1958 8.343L56.1758 8.436C56.1657 8.498 56.1245 8.736 56.0833 8.963C56.0422 9.19 55.9599 9.65501 55.9086 9.97501C55.8574 10.295 55.765 10.76 55.7137 11.028C55.6625 11.296 55.5902 11.628 55.549 11.782C55.5078 11.936 55.4566 12.133 55.4255 12.236C55.3856 12.371 55.3339 12.5021 55.2708 12.628C55.2123 12.7563 55.1451 12.8806 55.0699 13C54.9998 13.0935 54.9243 13.183 54.844 13.268C54.7435 13.3543 54.6371 13.4335 54.5256 13.505L54.3307 13.639L53.7652 13.825L53.481 13.829Z" fill="#B3131B"/>
<path d="M40.8307 14.8308L41.3138 14.8208L41.6151 14.7378L41.9234 14.6658L42.1183 14.5728C42.2542 14.5072 42.3848 14.4313 42.509 14.3458C42.6437 14.2569 42.7677 14.1529 42.8786 14.0358C42.993 13.9229 43.0994 13.8023 43.197 13.6748C43.2794 13.5748 43.3406 13.4888 43.3507 13.4988C43.3489 13.6238 43.3351 13.7484 43.3095 13.8708C43.2802 14.0622 43.2631 14.2553 43.2583 14.4488V14.6758H44.564L44.5841 14.1598L44.6042 13.6538L44.6966 12.9928C44.7478 12.6208 44.8302 12.0838 44.8814 11.7848C44.9326 11.4858 45.025 10.9898 45.0762 10.6848C45.1275 10.3798 45.2199 9.87981 45.2711 9.59081L45.3715 9.07481V8.1748L45.2711 7.96881L45.1787 7.76282L45.035 7.62881L44.9015 7.49481L44.6755 7.38081L44.4495 7.26682L43.7816 7.12181L43.3186 7.08081L42.8555 7.0498L42.2589 7.08081C41.9405 7.10181 41.4775 7.14281 41.2414 7.17381L40.8096 7.22581H40.234L40.1929 7.43181C40.1617 7.54581 40.1005 7.81381 40.0493 8.03181C40.006 8.16199 39.9751 8.2959 39.9568 8.43181C40.0748 8.41548 40.1916 8.39143 40.3064 8.35982C40.4811 8.30782 40.8819 8.22581 41.1702 8.17381L41.7045 8.08081L42.1876 8.05981L42.6707 8.0388L43.2874 8.15282L43.4883 8.25281L43.6892 8.35281L43.8127 8.51781L43.9262 8.69382V9.24081L43.8649 9.54082L43.8036 9.84081L42.519 9.85081H41.2344L40.8126 9.96481C40.5866 10.0368 40.3295 10.1198 40.2471 10.1648C40.1868 10.192 40.1251 10.216 40.0623 10.2368C39.9574 10.2833 39.8566 10.3385 39.761 10.4018L39.4838 10.5668L39.2678 10.7838C39.1509 10.9081 39.0413 11.039 38.9394 11.1758C38.8463 11.3249 38.7638 11.4803 38.6923 11.6408L38.5788 11.9198L38.5276 12.2298L38.4663 12.5398V13.2008L38.5175 13.4688L38.5688 13.7478L38.6692 13.9238C38.7352 14.0344 38.8073 14.1412 38.8852 14.2438L39.0087 14.3778L39.2096 14.5118L39.4255 14.6458L39.6726 14.7078C39.8202 14.7536 39.9714 14.787 40.1246 14.8078L40.3255 14.8488L40.8307 14.8308ZM41.2826 13.8308L40.9944 13.8518L40.7995 13.7998C40.6791 13.7659 40.5621 13.7211 40.45 13.6658L40.2953 13.5828L40.2029 13.4828C40.1421 13.4042 40.087 13.3213 40.0382 13.2348L39.9659 13.0798L39.9458 12.7388L39.9357 12.3978L39.997 12.1808C40.0416 12.0292 40.0967 11.8809 40.1617 11.7368L40.2752 11.5098L40.4912 11.2928L40.7071 11.0758L40.9431 10.9618L41.1691 10.8618L41.4574 10.7898L41.7457 10.7178H43.5244L43.5857 10.7488L43.6369 10.7698L43.5857 11.0488C43.5528 11.2575 43.5082 11.4641 43.4521 11.6678C43.4009 11.8538 43.3085 12.1328 43.2573 12.2768C43.2176 12.3746 43.184 12.4748 43.1568 12.5768C43.1183 12.659 43.0737 12.7383 43.0233 12.8138L42.8897 13.0308L42.6737 13.2478C42.6007 13.326 42.5218 13.3986 42.4377 13.4648C42.3796 13.4857 42.3243 13.5136 42.273 13.5478L42.1494 13.6408L41.8481 13.7338L41.5599 13.8268L41.2826 13.8308Z" fill="#B3131B"/>
<path d="M34.9701 14.8412L35.3607 14.8512L35.8027 14.7992C36.0498 14.7682 36.3782 14.7162 36.5329 14.6852C36.6876 14.6542 36.9346 14.6022 37.0773 14.5612C37.2199 14.5202 37.3655 14.4682 37.3856 14.4612C37.4278 14.344 37.4587 14.2231 37.478 14.1002C37.5192 13.9142 37.5604 13.6662 37.5784 13.5422C37.5975 13.4681 37.6047 13.3915 37.5995 13.3152C37.5895 13.3052 37.5684 13.3152 37.5383 13.3362C37.4156 13.4003 37.2884 13.4554 37.1576 13.5012L36.8081 13.6352L36.325 13.7282L35.8318 13.8212L35.421 13.8112L34.9992 13.7902L34.7631 13.7072L34.5271 13.6242L34.3523 13.4692L34.1675 13.3042L34.044 13.0872L33.9205 12.8602L33.8692 12.5712L33.808 12.2712V11.5072L33.8803 11.0422L33.9526 10.5772L34.0249 10.3192C34.0661 10.1852 34.1073 10.0192 34.1254 9.96815C34.164 9.83757 34.212 9.70991 34.269 9.58615C34.3443 9.41246 34.4302 9.24349 34.5261 9.08015L34.6597 8.84315L34.8345 8.66716L34.9992 8.49216L35.184 8.37816L35.3587 8.26416L35.5948 8.19215C35.7561 8.14215 35.9209 8.10405 36.0879 8.07816L36.3551 8.03716L36.7458 8.05815L37.1365 8.07916L37.5995 8.17215L38.0626 8.26515L38.2574 8.33716C38.3579 8.37816 38.4523 8.40916 38.4523 8.40916C38.4798 8.31123 38.497 8.21067 38.5035 8.10916C38.5346 7.94416 38.5758 7.67516 38.6039 7.52016C38.6297 7.41537 38.6435 7.30803 38.6451 7.20016C38.5438 7.17526 38.4407 7.15788 38.3368 7.14816C38.1721 7.13816 37.7341 7.09616 37.3605 7.07616L36.6715 7.03516L36.1884 7.07616L35.7153 7.11716L35.3557 7.18916L34.9962 7.26115L34.7702 7.35416C34.6292 7.41454 34.492 7.48332 34.3594 7.56015C34.2589 7.62215 34.1334 7.70515 34.0711 7.74615C33.9403 7.85136 33.8168 7.9653 33.7015 8.08716L33.4343 8.35516L33.2796 8.57216C33.1582 8.75801 33.0482 8.95104 32.9502 9.15016L32.7855 9.49115L32.6519 9.87315C32.5657 10.1202 32.4936 10.372 32.436 10.6272L32.3435 10.9992L32.3024 11.3402L32.2712 11.6812V12.5812L32.3024 12.8392L32.3435 13.0972L32.444 13.3652L32.5444 13.6332L32.678 13.8332L32.7915 14.0332L32.9924 14.2192L33.1872 14.4192L33.3881 14.5332L33.589 14.6332L33.8662 14.7162C34.0099 14.7572 34.2258 14.7992 34.3393 14.8162C34.5487 14.8384 34.7595 14.8467 34.9701 14.8412V14.8412Z" fill="#B3131B"/>
<path d="M23.6325 14.8408L24.0232 14.8508L24.4139 14.8098C24.6298 14.7998 24.9894 14.7578 25.2053 14.7268C25.4213 14.6958 25.7909 14.6268 26.0279 14.5718L26.4598 14.4788L26.491 14.3138C26.501 14.2208 26.5522 13.9628 26.5914 13.7258L26.6838 13.3028L26.6637 13.2818L26.6436 13.2608L26.5101 13.3228C26.3466 13.3989 26.1789 13.4657 26.0079 13.5228L25.6272 13.6468L25.2365 13.7188L24.8458 13.7908L24.219 13.8008H23.5923L23.3914 13.7288C23.2575 13.687 23.1268 13.6352 23.0007 13.5738L22.836 13.4908L22.5477 13.2328L22.4473 13.0328L22.3338 12.8468L22.2615 12.5988L22.1892 12.3618V11.4618L22.2504 11.0698L22.3117 10.6698L23.3914 10.6178L25.3751 10.6278L27.3487 10.6378L27.41 10.3898C27.459 10.1752 27.4968 9.95828 27.5235 9.73982L27.5747 9.35782V8.69682L27.5235 8.44882L27.4622 8.21182L27.3698 8.04683C27.3133 7.9451 27.2481 7.84841 27.175 7.75783C27.1013 7.68024 27.0224 7.60774 26.9389 7.54083C26.8666 7.49983 26.738 7.41682 26.6306 7.36482L26.4558 7.26483L26.1474 7.19283L25.8291 7.12082L25.4484 7.07982L25.0677 7.04883L24.7082 7.06982L24.3486 7.09082L23.9267 7.17383L23.4949 7.25682L23.2277 7.35683C23.0592 7.43121 22.8946 7.51398 22.7345 7.60483C22.5947 7.68134 22.4604 7.76755 22.3328 7.86282C22.2504 7.93482 22.0967 8.07982 21.9933 8.17282C21.8898 8.26582 21.7572 8.45182 21.6749 8.56482C21.5925 8.67782 21.474 8.89483 21.3977 9.02983C21.3213 9.16483 21.243 9.35982 21.2028 9.46382C21.1626 9.56782 21.0893 9.76382 21.0381 9.90782C20.9869 10.0518 20.9045 10.3418 20.8634 10.5378C20.8222 10.7338 20.7499 11.0648 20.7197 11.2608L20.6584 11.6218V12.6848L20.7197 12.9218C20.7534 13.0649 20.7946 13.2061 20.8432 13.3448C20.89 13.4687 20.945 13.5893 21.008 13.7058C21.0765 13.8196 21.1555 13.9267 21.244 14.0258C21.3463 14.13 21.4561 14.2266 21.5724 14.3148C21.6938 14.4046 21.8249 14.4808 21.9632 14.5418L22.164 14.6348L22.4523 14.7068C22.617 14.7478 22.8631 14.7898 22.9967 14.8068C23.2078 14.8305 23.42 14.8419 23.6325 14.8408V14.8408ZM24.3004 9.80283C23.3131 9.80283 22.5116 9.79283 22.5116 9.78183C22.5116 9.77083 22.5527 9.64782 22.604 9.51382C22.6552 9.37982 22.7476 9.15282 22.7988 9.02882L22.9123 8.82283L23.1483 8.58583L23.3844 8.34883L23.6104 8.23483C23.7334 8.17693 23.8606 8.12846 23.991 8.08983C24.1535 8.05607 24.3184 8.03534 24.4842 8.02783L24.8437 8.00682L25.1109 8.03783L25.3881 8.07883L25.583 8.17183L25.7839 8.25482L25.8843 8.37883C25.9488 8.44341 26.0042 8.51641 26.049 8.59583L26.1002 8.68883L26.1314 8.89482L26.1625 9.10083L26.1213 9.45183L26.0902 9.80283H24.3004Z" fill="#B3131B"/>
<path d="M13.692 17.9996L13.7121 17.9476C13.7341 17.8955 13.7447 17.8392 13.7432 17.7826C13.7432 17.7206 13.7633 17.5146 13.7945 17.3076C13.8256 17.1006 13.8949 16.6466 13.9592 16.2856C14.0235 15.9246 14.1028 15.3666 14.144 15.0676C14.1852 14.7686 14.2575 14.3676 14.2776 14.2006C14.2844 14.0918 14.305 13.9843 14.3388 13.8806C14.3842 13.9342 14.4223 13.9933 14.4523 14.0566L14.5447 14.2216L14.7396 14.4216L14.9344 14.6276L15.1815 14.7206L15.4176 14.8206L15.7189 14.8516L16.0071 14.8926L16.3768 14.8716L16.7363 14.8506L17.1381 14.7506L17.5398 14.6506L17.7558 14.5506C17.8693 14.4986 18.0742 14.3746 18.2188 14.2926L18.4659 14.1276L18.7019 13.8906C18.8444 13.7471 18.9786 13.5955 19.1037 13.4366C19.1654 13.3587 19.2205 13.2757 19.2684 13.1886C19.2684 13.1786 19.3196 13.1056 19.3688 13.0236C19.4181 12.9416 19.5336 12.7136 19.626 12.5176C19.7184 12.3216 19.8268 11.9596 19.9142 11.7226L20.0478 11.2996L20.1201 10.9276C20.1613 10.7216 20.2125 10.3806 20.2336 10.1736L20.2748 9.79164L20.2547 9.47165L20.2236 9.15164L20.1513 8.83163L20.0789 8.50165L19.9554 8.26465L19.8419 8.02765L19.6059 7.77965L19.3698 7.53165L18.8255 7.24265L18.5171 7.17064L18.2158 7.09865L17.9074 7.07764L17.6061 7.05664L17.2666 7.08765L16.9272 7.12865L16.6499 7.20064L16.3828 7.27264L16.1357 7.38664C15.9907 7.45396 15.8498 7.52976 15.7138 7.61365C15.6134 7.67565 15.513 7.75864 15.4778 7.77864C15.4341 7.82153 15.3859 7.85974 15.3342 7.89264L15.2418 7.95464L15.3031 7.63464C15.3333 7.51897 15.3574 7.40181 15.3754 7.28365V7.23164H14.0697L13.9562 7.95464C13.8949 8.35464 13.7915 8.97664 13.7302 9.32764C13.6689 9.67864 13.5866 10.2156 13.5353 10.5146C13.4841 10.8136 13.4017 11.3306 13.3405 11.6706C13.2792 12.0106 13.1858 12.5706 13.1245 12.8886C13.0633 13.2066 12.9809 13.6936 12.9297 13.9416C12.8785 14.1896 12.7961 14.6846 12.7348 15.0256C12.6736 15.3666 12.5801 15.8826 12.5189 16.2026C12.4576 16.5226 12.3642 17.0186 12.3029 17.3026C12.2417 17.5866 12.1894 17.8806 12.1794 17.9216L12.1593 18.0046L13.692 17.9996ZM15.9328 13.8806L15.738 13.8496L15.5431 13.8086L15.3483 13.7156L15.1534 13.6326L15.0098 13.4986L14.8762 13.3646L14.7938 13.1886C14.7434 13.0679 14.7021 12.9435 14.6703 12.8166L14.6191 12.6166L14.6392 12.3066L14.6592 11.9966L14.7516 11.5116C14.8029 11.2536 14.8953 10.7476 14.9465 10.4116C14.9977 10.0756 15.1012 9.56464 15.1474 9.28664L15.2398 8.78664L15.4407 8.62164C15.5644 8.51495 15.6991 8.42143 15.8424 8.34264L16.0272 8.22864L16.2844 8.15665L16.5314 8.07364L17.1692 8.03264L17.4364 8.09464L17.6935 8.14664L17.8783 8.22964L18.0631 8.32265L18.2178 8.47765L18.3725 8.63264L18.4548 8.79764C18.5167 8.92282 18.5648 9.05423 18.5985 9.18964L18.6597 9.42664L18.6397 10.0976L18.6196 10.7786L18.5272 11.1786C18.4738 11.4334 18.4067 11.6851 18.3263 11.9326L18.2027 12.2836L18.0481 12.5626C17.9657 12.7176 17.8472 12.9346 17.7708 13.0376C17.6957 13.1428 17.6095 13.2397 17.5137 13.3266C17.4327 13.4009 17.3468 13.4697 17.2566 13.5326L17.1331 13.6256L16.5304 13.8316L15.9328 13.8806Z" fill="#B3131B"/>
</svg>
