<svg width="30" height="23" viewBox="0 0 30 23" fill="none" xmlns="http://www.w3.org/2000/svg">
<path d="M29.0029 0.000488281H0.00292969V22.0005H29.0029V0.000488281Z" fill="white"/>
<path d="M5.26695 21.9505V20.4885C5.2768 20.3649 5.2598 20.2406 5.21713 20.1242C5.17446 20.0078 5.10714 19.902 5.01976 19.814C4.93238 19.7261 4.827 19.6581 4.71088 19.6146C4.59475 19.5712 4.47061 19.5534 4.34695 19.5625C4.18284 19.5556 4.01961 19.5897 3.87193 19.6616C3.72426 19.7336 3.59679 19.8411 3.50096 19.9745C3.41783 19.8394 3.29936 19.7296 3.15836 19.657C3.01735 19.5844 2.85919 19.5517 2.70096 19.5625C2.56208 19.5562 2.42377 19.584 2.2981 19.6434C2.17242 19.7028 2.06319 19.7921 1.97995 19.9035V19.6095H1.50696V21.9485H1.97995V20.6105C1.97096 20.5291 1.98022 20.4467 2.00706 20.3693C2.03391 20.292 2.07765 20.2216 2.13512 20.1633C2.19258 20.1049 2.26233 20.0601 2.33928 20.0322C2.41623 20.0042 2.49845 19.9937 2.57996 20.0015C2.92796 20.0015 3.12695 20.2205 3.12695 20.6105V21.9505H3.59996V20.6105C3.59097 20.5291 3.60023 20.4467 3.62708 20.3693C3.65392 20.292 3.69766 20.2216 3.75513 20.1633C3.81259 20.1049 3.88233 20.0601 3.95927 20.0322C4.03622 20.0042 4.11844 19.9937 4.19995 20.0015C4.54795 20.0015 4.74695 20.2205 4.74695 20.6105V21.9505H5.26695ZM13.03 19.6355H12.159V18.9295H11.687V19.6355H11.187V20.0475H11.687V21.1475C11.687 21.6835 11.887 22.0005 12.487 22.0005C12.7129 21.9958 12.9344 21.9372 13.1329 21.8295L12.983 21.4175C12.8482 21.4998 12.6928 21.5421 12.535 21.5395C12.4833 21.5443 12.4311 21.5374 12.3825 21.5193C12.3338 21.5012 12.2899 21.4723 12.2541 21.4347C12.2182 21.3972 12.1912 21.3521 12.1753 21.3027C12.1593 21.2533 12.1548 21.2009 12.162 21.1495V20.0295H13.033V19.6395L13.03 19.6355ZM17.459 19.5625C17.3309 19.5592 17.2042 19.5888 17.0909 19.6485C16.9777 19.7082 16.8816 19.796 16.812 19.9035V19.6095H16.339V21.9485H16.812V20.6345C16.812 20.2445 17.012 20.0015 17.335 20.0015C17.4441 20.0059 17.5524 20.0223 17.658 20.0505L17.808 19.6115C17.6933 19.5831 17.576 19.5667 17.458 19.5625H17.459ZM10.766 19.8064C10.4736 19.6317 10.1362 19.5468 9.79596 19.5625C9.19596 19.5625 8.82596 19.8305 8.82596 20.2935C8.82596 20.6835 9.09996 20.9025 9.62596 20.9755L9.87495 20.9995C10.149 21.0485 10.323 21.1455 10.323 21.2675C10.323 21.4385 10.123 21.5615 9.75096 21.5615C9.465 21.5682 9.18448 21.4826 8.95096 21.3175L8.70195 21.6825C9.00589 21.8789 9.3611 21.9812 9.72296 21.9765C10.423 21.9765 10.793 21.6605 10.793 21.2215C10.793 20.8095 10.493 20.6125 9.97195 20.5395L9.72296 20.5155C9.49896 20.4915 9.30295 20.4155 9.30295 20.2725C9.30295 20.1015 9.50296 19.9785 9.77596 19.9785C10.036 19.9893 10.2908 20.0558 10.5229 20.1735L10.766 19.8064ZM17.981 20.7815C17.9728 20.9458 17.9995 21.11 18.0595 21.2633C18.1195 21.4165 18.2113 21.5553 18.3289 21.6704C18.4465 21.7855 18.5871 21.8744 18.7416 21.9311C18.8961 21.9878 19.0608 22.0111 19.225 21.9995C19.5302 22.0163 19.8311 21.921 20.071 21.7315L19.822 21.3665C19.6446 21.5064 19.4258 21.5834 19.2 21.5855C19.0004 21.5754 18.8124 21.489 18.6748 21.3442C18.5372 21.1994 18.4604 21.0072 18.4604 20.8075C18.4604 20.6077 18.5372 20.4156 18.6748 20.2708C18.8124 20.126 19.0004 20.0396 19.2 20.0295C19.4258 20.0315 19.6446 20.1085 19.822 20.2485L20.071 19.8835C19.831 19.6942 19.5302 19.5989 19.225 19.6155C19.0634 19.5962 18.8996 19.6126 18.745 19.6634C18.5904 19.7143 18.4489 19.7984 18.3303 19.9098C18.2117 20.0213 18.119 20.1573 18.0587 20.3084C17.9983 20.4595 17.9718 20.622 17.981 20.7845V20.7815ZM14.647 19.5635C14.4876 19.5575 14.3287 19.5853 14.1808 19.645C14.033 19.7048 13.8994 19.7952 13.7889 19.9102C13.6784 20.0252 13.5935 20.1623 13.5397 20.3125C13.486 20.4626 13.4646 20.6224 13.477 20.7815C13.468 20.9438 13.4934 21.1063 13.5515 21.2582C13.6096 21.4101 13.6991 21.5481 13.8141 21.663C13.9292 21.778 14.0672 21.8674 14.2191 21.9253C14.3711 21.9833 14.5336 22.0086 14.696 21.9995C15.0458 22.0072 15.3878 21.8957 15.666 21.6835L15.417 21.3425C15.2152 21.4956 14.9702 21.5811 14.7169 21.5865C14.5421 21.5948 14.3705 21.5366 14.2368 21.4237C14.103 21.3107 14.017 21.1513 13.996 20.9775H15.763V20.7825C15.7787 20.6269 15.7612 20.4699 15.7118 20.3216C15.6624 20.1732 15.5822 20.0371 15.4764 19.922C15.3706 19.807 15.2416 19.7156 15.098 19.654C14.9543 19.5924 14.7993 19.5619 14.643 19.5645L14.647 19.5635ZM14.6219 20.0025C14.7017 19.998 14.7815 20.0098 14.8566 20.0371C14.9316 20.0644 15.0003 20.1068 15.0585 20.1615C15.1167 20.2162 15.1631 20.2822 15.195 20.3554C15.2269 20.4287 15.2435 20.5076 15.244 20.5875H13.951C13.9713 20.4244 14.051 20.2746 14.1747 20.1665C14.2985 20.0585 14.4577 19.9997 14.6219 20.0015V20.0025ZM8.17795 20.7815V19.6155H7.70096V19.9095C7.60898 19.7952 7.49099 19.7047 7.35686 19.6453C7.22273 19.586 7.07636 19.5597 6.92996 19.5685C6.61547 19.5812 6.31809 19.7151 6.10008 19.9421C5.88207 20.1692 5.76031 20.4717 5.76031 20.7865C5.76031 21.1012 5.88207 21.4038 6.10008 21.6308C6.31809 21.8578 6.61547 21.9917 6.92996 22.0045C7.07633 22.013 7.22262 21.9865 7.3567 21.9272C7.49079 21.8679 7.60882 21.7775 7.70096 21.6635V21.9575H8.17395L8.17795 20.7815ZM6.26195 20.7815C6.27053 20.6388 6.32052 20.5017 6.40579 20.387C6.49107 20.2724 6.60795 20.185 6.7421 20.1357C6.87625 20.0864 7.02186 20.0773 7.16112 20.1095C7.30037 20.1416 7.42722 20.2137 7.52614 20.3169C7.62506 20.42 7.69175 20.5498 7.71806 20.6903C7.74438 20.8307 7.72917 20.9758 7.67429 21.1078C7.6194 21.2398 7.52724 21.3529 7.40907 21.4333C7.2909 21.5137 7.15186 21.5579 7.00896 21.5605C6.90651 21.5662 6.80404 21.5496 6.70859 21.512C6.61314 21.4743 6.52696 21.4164 6.45599 21.3423C6.38502 21.2682 6.33093 21.1797 6.29744 21.0827C6.26395 20.9857 6.25183 20.8826 6.26195 20.7805V20.7815ZM24.649 19.5635C24.5209 19.5602 24.3942 19.5898 24.2809 19.6495C24.1676 19.7092 24.0716 19.797 24.002 19.9045V19.6105H23.529V21.9495H24.001V20.6355C24.001 20.2455 24.201 20.0025 24.524 20.0025C24.6331 20.0069 24.7414 20.0233 24.847 20.0515L24.9969 19.6124C24.8829 19.5842 24.7663 19.5678 24.649 19.5635ZM22.808 20.7815V19.6155H22.335V19.9095C22.243 19.7952 22.125 19.7047 21.9909 19.6453C21.8567 19.586 21.7103 19.5597 21.5639 19.5685C21.2495 19.5812 20.9521 19.7151 20.7341 19.9421C20.5161 20.1692 20.3943 20.4717 20.3943 20.7865C20.3943 21.1012 20.5161 21.4038 20.7341 21.6308C20.9521 21.8578 21.2495 21.9917 21.5639 22.0045C21.7103 22.013 21.8566 21.9865 21.9907 21.9272C22.1248 21.8679 22.2428 21.7775 22.335 21.6635V21.9575H22.808V20.7815ZM20.892 20.7815C20.9005 20.6388 20.9505 20.5017 21.0358 20.387C21.1211 20.2724 21.2379 20.185 21.3721 20.1357C21.5062 20.0864 21.6519 20.0773 21.7911 20.1095C21.9304 20.1416 22.0572 20.2137 22.1561 20.3169C22.255 20.42 22.3218 20.5498 22.3481 20.6903C22.3744 20.8307 22.3592 20.9758 22.3043 21.1078C22.2494 21.2398 22.1572 21.3529 22.0391 21.4333C21.9209 21.5137 21.7819 21.5579 21.639 21.5605C21.5365 21.5662 21.434 21.5496 21.3386 21.512C21.2431 21.4743 21.157 21.4164 21.086 21.3423C21.015 21.2682 20.9609 21.1797 20.9274 21.0827C20.8939 20.9857 20.8818 20.8826 20.892 20.7805V20.7815ZM27.61 20.7815V18.6814H27.1369V19.8995C27.045 19.7852 26.927 19.6947 26.7929 19.6353C26.6587 19.576 26.5124 19.5497 26.366 19.5585C26.0515 19.5712 25.7541 19.7051 25.5361 19.9321C25.3181 20.1591 25.1963 20.4617 25.1963 20.7765C25.1963 21.0912 25.3181 21.3938 25.5361 21.6208C25.7541 21.8478 26.0515 21.9817 26.366 21.9945C26.5123 22.003 26.6586 21.9766 26.7927 21.9173C26.9268 21.858 27.0448 21.7675 27.1369 21.6535V21.9475H27.61V20.7815ZM25.694 20.7815C25.7025 20.6388 25.7525 20.5017 25.8378 20.387C25.9231 20.2724 26.0399 20.185 26.1741 20.1357C26.3082 20.0864 26.4539 20.0773 26.5931 20.1095C26.7324 20.1416 26.8592 20.2137 26.9581 20.3169C27.0571 20.42 27.1238 20.5498 27.1501 20.6903C27.1764 20.8307 27.1612 20.9758 27.1063 21.1078C27.0514 21.2398 26.9592 21.3529 26.8411 21.4333C26.7229 21.5137 26.5838 21.5579 26.4409 21.5605C26.3386 21.5662 26.2362 21.5496 26.1409 21.512C26.0455 21.4744 25.9594 21.4166 25.8884 21.3426C25.8175 21.2687 25.7633 21.1802 25.7298 21.0833C25.6962 20.9865 25.684 20.8835 25.694 20.7815Z" fill="black"/>
<path d="M18.852 1.87547H10.218V15.6645H18.852V1.87547Z" fill="#FF5F00"/>
<path d="M11.089 8.76946C11.0926 7.43679 11.4013 6.12265 11.9915 4.92781C12.5817 3.73296 13.4378 2.68917 14.494 1.87646C12.7136 0.511756 10.4916 -0.146759 8.25514 0.0274927C6.01866 0.201745 3.9255 1.19647 2.37798 2.82047C0.852309 4.42578 0.00158691 6.55581 0.00158691 8.77046C0.00158691 10.9851 0.852309 13.1152 2.37798 14.7205C3.9255 16.3445 6.01866 17.3392 8.25514 17.5134C10.4916 17.6877 12.7136 17.0292 14.494 15.6645C13.4376 14.8515 12.5814 13.8074 11.9912 12.6122C11.4009 11.417 11.0923 10.1025 11.089 8.76946Z" fill="#EB001B"/>
<path d="M29.003 8.77046C28.9964 10.4265 28.5198 12.0466 27.6287 13.4425C26.7375 14.8383 25.4684 15.9525 23.969 16.6555C22.4563 17.3755 20.7742 17.664 19.108 17.4892C17.4418 17.3143 15.8563 16.6829 14.526 15.6645C15.5859 14.8546 16.4447 13.8112 17.0359 12.6155C17.627 11.4198 17.9346 10.1038 17.9346 8.76996C17.9346 7.43608 17.627 6.12015 17.0359 4.92442C16.4447 3.72869 15.5859 2.68535 14.526 1.87546C15.8563 0.857045 17.4418 0.225617 19.108 0.0507587C20.7742 -0.1241 22.4563 0.164398 23.969 0.884461C25.4684 1.58742 26.7375 2.7016 27.6287 4.09744C28.5198 5.49328 28.9964 7.11342 29.003 8.76946V8.77046Z" fill="#F79E1B"/>
</svg>
