<svg width="47" height="22" viewBox="0 0 47 22" fill="none" xmlns="http://www.w3.org/2000/svg">
<path d="M16.3234 17.8405L18.6626 4.27051H22.403L20.0638 17.8405H16.3234Z" fill="#0E4595"/>
<path d="M33.5618 4.56831C32.4881 4.18334 31.3543 3.99103 30.2131 4.00032C26.522 4.00032 23.9156 5.84433 23.8955 8.47733C23.8744 10.4253 25.7516 11.5133 27.1738 12.1643C28.6312 12.8293 29.1214 13.2523 29.1143 13.8483C29.1073 14.7563 27.9512 15.1723 26.8796 15.1723C25.6682 15.2072 24.4651 14.9628 23.3642 14.4583L22.8811 14.2433L22.3558 17.2793C23.6876 17.7671 25.0969 18.0114 26.516 18.0003C30.4451 18.0003 32.9953 16.1843 33.0234 13.3633C33.0375 11.8173 32.0431 10.6463 29.8857 9.67632C28.58 9.04532 27.7765 8.62933 27.7845 7.99233C27.7845 7.43133 28.4635 6.82832 29.9279 6.82832C30.8859 6.80493 31.8382 6.98209 32.7231 7.34833L33.0596 7.50732L33.5618 4.56831" fill="#0E4595"/>
<path d="M43.1788 4.27714H40.2932C39.8888 4.22483 39.4783 4.30644 39.1251 4.50939C38.7719 4.71234 38.4955 5.02534 38.3387 5.40014L32.7914 17.8331H36.7136C36.7136 17.8331 37.3584 16.1631 37.498 15.7951L42.2819 15.8021C42.3944 16.2801 42.7369 17.8331 42.7369 17.8331H46.204L43.1788 4.27714ZM38.5978 13.0371L40.0893 9.24613C40.0682 9.28113 40.3976 8.46314 40.5915 7.94614L40.8436 9.11713C40.8436 9.11713 41.5577 12.3541 41.7124 13.0331H38.5988L38.5978 13.0371Z" fill="#0E4595"/>
<path d="M13.1505 4.27737L9.49453 13.5294L9.10181 11.6514C8.15318 9.17598 6.30576 7.14537 3.92517 5.96138L7.27381 17.8264L11.2311 17.8194L17.1149 4.27637H13.1505" fill="#0E4595"/>
<path d="M6.07557 4.27686H0.049215L0 4.56085C4.68649 5.68385 7.78906 8.40086 9.0777 11.6609L7.77199 5.42285C7.67559 5.06059 7.45087 4.74525 7.13928 4.53501C6.82769 4.32476 6.45025 4.23378 6.07658 4.27886" fill="#F2AE14"/>
</svg>
